<?xml version="1.0" encoding="utf-8"?>
<!-- Generator: Adobe Illustrator 24.1.0, SVG Export Plug-In . SVG Version: 6.00 Build 0)  -->
<svg version="1.1" id="a75bc36a-d732-4694-9701-0c8e65c5a43b"
	 xmlns="http://www.w3.org/2000/svg" xmlns:xlink="http://www.w3.org/1999/xlink" x="0px" y="0px" viewBox="0 0 948.7 656.2"
	 style="enable-background:new 0 0 948.7 656.2;" xml:space="preserve">
<style type="text/css">
	.st0{fill:#FFFFFF;}
	.st1{fill:#6C63FF;}
	.st2{fill:#E6E6E6;}
</style>
<g id="XMLID_1_">
	<g>
		<path class="st0" d="M604.8,465.6h0.1c0,2-1.7,3.7-3.7,3.7H267.4c-2,0-3.7-1.7-3.7-3.7V180.2c0-2,1.7-3.7,3.7-3.7h333.7
			c2,0,3.7,1.7,3.7,3.7V465.6z"/>
		<path class="st0" d="M604.9,465.6h-0.1V180.2c0-2-1.7-3.7-3.7-3.7H267.4c-2,0-3.7,1.7-3.7,3.7v285.4c0,2,1.7,3.7,3.7,3.7h333.8
			C603.2,469.3,604.9,467.6,604.9,465.6z M607.3,180.2v285.4c0,3.4-2.8,6.2-6.2,6.2H267.4c-3.4,0-6.2-2.8-6.2-6.2V180.2
			c0-3.4,2.8-6.2,6.2-6.2h333.8C604.6,174,607.3,176.8,607.3,180.2z"/>
	</g>
	<g>
	</g>
</g>
<path id="b96bbff1-710e-4cf9-8f0a-207f6a2454c7" class="st1" d="M344.5,421c0,0.4,0,0.9,0,1.3c-0.7,13.9-12.6,24.6-26.5,23.8
	c-12.9-0.7-23.1-11-23.8-23.8c0-0.4,0-0.9,0-1.3c0-13.9,11.3-25.2,25.2-25.2C333.2,395.8,344.5,407.1,344.5,421L344.5,421z"/>
<path id="a99625a5-8e94-4aa2-927a-7cc58a47d0f9" class="st1" d="M575.2,404.2H377.4c-2.3,0.1-4.1,2-4,4.4c0.1,2.2,1.8,4,4,4h197.8
	c2.3,0.1,4.3-1.7,4.4-4c0.1-2.3-1.7-4.3-4-4.4C575.4,404.2,575.3,404.2,575.2,404.2z"/>
<path id="f2e8dd5a-2c6f-4c4a-9a4a-91faa08ec764" class="st2" d="M462.5,429.4h-85.1c-2.3,0-4.2,1.9-4.2,4.2c0,2.3,1.9,4.2,4.2,4.2
	h85.1c2.3,0,4.2-1.9,4.2-4.2S464.9,429.4,462.5,429.4L462.5,429.4z"/>
<path id="b0d633b1-50f0-455b-880b-69d0ec30b218" class="st1" d="M680.5,373.1H346.7c-3.9,0-7-3.2-7-7V219.6c0-3.9,3.2-7,7-7h333.7
	c3.9,0,7,3.2,7,7V366C687.5,369.9,684.3,373.1,680.5,373.1z"/>
<path id="a4d76c33-4002-4242-b64e-8bf1a807cbd3" class="st0" d="M414.7,264.4c-2.3-0.1-4.3,1.7-4.4,4s1.7,4.3,4,4.4
	c0.1,0,0.2,0,0.4,0h197.8c2.3-0.1,4.1-2.1,4-4.4c-0.1-2.2-1.8-3.9-4-4H414.7z"/>
<path id="a4bd9330-30bf-4fe3-97b2-bd8f02deaa7a" class="st0" d="M414.7,288.7c-2.3-0.1-4.3,1.7-4.4,4s1.7,4.3,4,4.4
	c0.1,0,0.2,0,0.4,0h197.8c2.3-0.1,4.1-2.1,4-4.4c-0.1-2.2-1.8-3.9-4-4H414.7z"/>
<path id="f4033984-e442-4bd8-ab2d-9d91ebc99eb7" class="st0" d="M414.7,312.8c-2.3,0.1-4.1,2.1-4,4.4c0.1,2.2,1.8,3.9,4,4h85.1
	c2.3,0.1,4.3-1.7,4.4-4s-1.7-4.3-4-4.4l0,0c-0.1,0-0.2,0-0.4,0H414.7z"/>
</svg>
