<?xml version="1.0" encoding="utf-8"?>
<!-- Generator: Adobe Illustrator 24.1.0, SVG Export Plug-In . SVG Version: 6.00 Build 0)  -->
<svg version="1.1" xmlns="http://www.w3.org/2000/svg" xmlns:xlink="http://www.w3.org/1999/xlink" x="0px" y="0px"
	 viewBox="0 0 595.3 841.9" style="enable-background:new 0 0 595.3 841.9;" xml:space="preserve">
<style type="text/css">
	.st0{display:none;}
	.st1{fill:#FFFFFF;}
	.st2{fill:none;stroke:#000000;stroke-linecap:round;stroke-miterlimit:10;}
	.st3{fill:none;stroke:#000000;stroke-linecap:round;stroke-linejoin:round;stroke-miterlimit:10;}
	.st4{fill:none;stroke:#000000;stroke-miterlimit:10;}
</style>
<g id="Capa_2" class="st0">
</g>
<g id="Capa_1">
	<g>
		<g id="XMLID_1_">
			<g>
				<path class="st1" d="M582,269.1v165.7c0,74.1-28.3,141.5-74.4,192.8V435.5c-0.3-116.4-94.2-210.3-210-210.3
					C181.8,225.2,88,319,88,434.8c0,65.7,30.2,124.2,77.4,162.7v89.1C75,638.9,13.3,544.1,13.3,434.8c0-157,127.3-284.3,284.3-284.3
					c83.1,0,157.9,35.7,210,92.6v-18.8v-98.4c16-25.5,43.1-50.9,74.4-52.9V269.1z"/>
				<path class="st1" d="M436.3,434.8v135.5c-13.6,161.3-138.7,148.9-138.7,148.9c-25.2,0-49.7-3.4-73-9.5v-78.3
					c22.7,8.4,47.3,13.1,73,13.1c0,0,62.4-0.8,64.5-86.9c-19.3,10.2-41.2,15.9-64.5,15.9C221,573.5,159,511.4,159,434.8
					c0-76.6,62.1-138.7,138.7-138.7c23.3,0,45.2,5.8,64.5,15.9C406.3,335.2,436.3,381.5,436.3,434.8z M362.2,434.8
					c0-35.6-28.9-64.5-64.5-64.5s-64.5,28.8-64.5,64.5c0,35.7,28.9,64.5,64.5,64.5S362.2,470.4,362.2,434.8z"/>
			</g>
			<g>
				<path class="st2" d="M362.2,312c-19.3-10.2-41.2-15.9-64.5-15.9C221,296.1,159,358.2,159,434.8c0,76.6,62.1,138.7,138.7,138.7
					c23.3,0,45.2-5.8,64.5-15.9"/>
				<line class="st3" x1="436.3" y1="570.3" x2="436.3" y2="434.8"/>
				<path class="st4" d="M436.3,434.8c0-53.3-30.1-99.5-74.2-122.7"/>
				<path class="st4" d="M362.2,434.8c0,35.7-28.9,64.5-64.5,64.5s-64.5-28.8-64.5-64.5c0-35.6,28.9-64.5,64.5-64.5
					S362.2,399.2,362.2,434.8z"/>
				<path class="st3" d="M362.2,557.6c-2.1,86.1-64.5,86.9-64.5,86.9c-25.7,0-50.3-4.6-73-13.1v78.3c23.3,6.2,47.8,9.5,73,9.5
					c0,0,125.1,12.4,138.7-148.9"/>
				<path class="st3" d="M507.6,224.3V243c-52-56.9-126.8-92.6-210-92.6c-157.1,0-284.3,127.3-284.3,284.3
					c0,109.3,61.7,204.2,152.1,251.8v-89.1C118.2,559,88,500.5,88,434.8c0-115.8,93.8-209.6,209.6-209.6
					c115.8,0,209.6,93.8,210,210.3v192.1c46.1-51.3,74.4-118.7,74.4-192.8V269.1"/>
				<path class="st3" d="M582,269.1V73c-31.2,2-58.4,27.4-74.4,52.9v98.4"/>
			</g>
		</g>
	</g>
</g>
</svg>
